<?xml version="1.0" encoding="utf-8"?>
<!-- Generator: Adobe Illustrator 22.1.0, SVG Export Plug-In . SVG Version: 6.00 Build 0)  -->
<svg version="1.1" id="Camada_1" xmlns="http://www.w3.org/2000/svg" xmlns:xlink="http://www.w3.org/1999/xlink" x="0px" y="0px"
	 viewBox="0 0 3131 984" style="enable-background:new 0 0 3131 984;" xml:space="preserve">
<style type="text/css">
	.st0{fill:url(#SVGID_1_);}
	.st1{fill:#303035;}
</style>
<g>
	<linearGradient id="SVGID_1_" gradientUnits="userSpaceOnUse" x1="544.751" y1="208.6874" x2="544.751" y2="783.1318">
		<stop  offset="0.2574" style="stop-color:#FF6C0E"/>
		<stop  offset="0.4378" style="stop-color:#FE660E"/>
		<stop  offset="0.6663" style="stop-color:#FD570E"/>
		<stop  offset="0.8855" style="stop-color:#FA410F"/>
	</linearGradient>
	<path class="st0" d="M837,782.9c-0.5,0.1-0.7,0.2-0.8,0.2c-33.4,0-66.8,0-100.1,0c-2.2-2.1-4.4-4.1-6.5-6.2
		c-2.7-2.6-5.5-5.3-8.2-7.9c-5.1-4.9-10.1-9.7-15.2-14.6c-3.7-3.5-7.3-7-11-10.5c-2.6-2.5-5.2-5-7.8-7.5c-0.6-0.6-1.3-1.2-1.6-2.1
		c-0.1-0.3-0.5-0.6-0.8-0.8c-2.9-2.7-5.7-5.4-8.6-8c-5.4-5-10.7-10-16.1-15c-3.8-3.6-7.7-7.1-11.5-10.7c-5.4-5-10.8-10.1-16.2-15.1
		c-0.2-0.2-0.5-0.4-0.6-0.7c-0.4-1.1-1.4-1.8-2.2-2.6c-3.9-3.8-7.8-7.5-11.8-11.3c-2.6-2.5-5.3-5.1-8-7.6c-5-4.8-10-9.6-15.1-14.4
		c-3.6-3.4-7.1-6.8-10.7-10.2c-5.2-4.9-10.3-9.9-15.5-14.8c-3.7-3.5-7.3-7-11-10.5c-3.9-3.8-7.8-7.5-11.8-11.3
		c-3.6-3.5-7.2-6.9-10.8-10.3c-5.1-4.9-10.2-9.8-15.3-14.7c-3.7-3.5-7.3-7-11-10.5c-4-3.8-7.9-7.6-11.9-11.4
		c-2.9-2.8-5.8-5.5-8.7-8.2c-0.6-0.6-1.2-1.1-1.6-1.9c0.3-0.1,0.5-0.2,0.8-0.2c0.6,0,1.1,0,1.7,0c32.2,0,64.4,0,96.5,0
		c0.2,0,0.4,0,0.6,0c1.4-0.2,2.4,0.4,3.3,1.4c3.9,3.8,7.9,7.6,11.9,11.4c4.9,4.7,9.9,9.5,14.8,14.2c3.7,3.6,7.5,7.2,11.2,10.7
		c5,4.8,9.9,9.5,14.9,14.3c3.7,3.5,7.4,7.1,11.1,10.6c5,4.8,9.9,9.5,14.9,14.3c2.4,2.3,4.8,4.5,7.1,6.8c3.2,3,6.3,6,9.5,9
		c0.5,0.4,0.9,0.8,1.3,1.2c0.8-0.1,1.1-0.6,1.4-1c2.6-3.2,5.3-6.5,7.8-9.8c3.4-4.5,6.6-9.1,9.6-13.9c4.3-6.8,8.3-13.9,11.8-21.2
		c3.6-7.4,6.8-15.1,9.6-22.9c3.6-10.1,6.4-20.5,8.4-31c1-5.3,1.9-10.6,2.5-15.9c0.4-3.3,0.6-6.7,0.9-10c0.6-6.9,0.8-13.9,0.6-20.8
		c-0.1-4-0.3-8.1-0.6-12.1c-0.2-3.4-0.5-6.8-0.9-10.2c-0.6-4.6-1.4-9.1-2.1-13.7c-1.1-6.7-2.7-13.4-4.6-19.9
		c-3.8-13.5-8.8-26.5-15.1-39c-5.2-10.4-11.3-20.3-18.1-29.7c-4.4-6-9.1-11.8-14.1-17.4c-5.5-6.1-11.2-11.8-17.4-17.2
		c-4.4-3.9-9-7.6-13.7-11.1c-6.3-4.7-12.8-9-19.6-12.9c-5.5-3.2-11.2-6.2-17-8.8c-5.5-2.5-11-4.8-16.6-6.8c-7-2.5-14.2-4.6-21.4-6.4
		c-5.4-1.3-10.9-2.2-16.4-3.2c-4.6-0.8-9.3-1.3-13.9-1.7c-3.1-0.3-6.2-0.4-9.3-0.5c-2.1-0.1-4.3-0.2-6.4-0.2
		c-5.1,0.1-10.1,0.1-15.2,0.5c-3.5,0.3-6.9,0.5-10.4,0.9c-2.6,0.3-5.1,0.7-7.7,1.1c-3.7,0.6-7.5,1.3-11.2,2.1
		c-5.7,1.3-11.3,2.7-16.8,4.4c-4.8,1.5-9.5,3.1-14.1,4.9c-7.1,2.8-14.1,6-20.8,9.6c-5.4,2.8-10.6,5.9-15.7,9.2
		c-7.4,4.8-14.4,10-21.2,15.7c-6.9,5.8-13.5,12.1-19.6,18.7c-10.1,11-19,23-26.6,35.9c-7.9,13.4-14.3,27.4-19.2,42.1
		c-3.1,9.3-5.6,18.8-7.4,28.4c-1,5.5-1.9,11.1-2.5,16.7c-0.9,8.6-1.4,17.1-1.4,25.7c0,5.2,0.2,10.4,0.7,15.5
		c0.4,4.3,0.7,8.6,1.3,12.8c1,7.7,2.4,15.3,4.3,22.9c2.7,11.1,6.2,22,10.6,32.6c3.3,8,7.1,15.8,11.4,23.3c4,7.1,8.3,13.9,13.1,20.4
		c3.4,4.7,6.9,9.2,10.7,13.6c4.4,5.1,8.9,10,13.7,14.7c3.9,3.8,8.1,7.5,12.3,11c4.6,3.8,9.3,7.4,14.2,10.8c1.8,1.2,3.5,2.4,5.4,3.6
		c4.4,2.8,8.9,5.5,13.5,8c6.4,3.5,13,6.7,19.8,9.5c5.6,2.3,11.3,4.4,17.1,6.2c8.4,2.7,17,4.7,25.7,6.3c5.8,1,11.6,1.8,17.5,2.2
		c7.7,0.6,15.4,0.9,23.1,0.6c4.3-0.2,8.6-0.3,12.9-0.8c0.7-0.1,1.2,0.2,1.7,0.6c1.1,1,2.2,2.1,3.3,3.1c4.9,4.6,9.9,9.3,14.8,13.9
		c3.9,3.7,7.9,7.3,11.8,11c5,4.7,10,9.3,15,14c3.8,3.5,7.6,7.1,11.4,10.6c2.1,2,4.3,4,6.4,6c0.1,0.1,0.2,0.3,0.4,0.6
		c-0.3,0.1-0.6,0.3-0.8,0.4c-3.6,1.1-7.3,2.2-10.9,3.2c-6.2,1.8-12.6,3.2-19,4.5c-3.9,0.8-7.8,1.4-11.8,2c-4.3,0.7-8.6,1.3-13,1.6
		c-4,0.4-8.1,0.8-12.1,1c-6.6,0.3-13.1,0.6-19.7,0.4c-5.9-0.2-11.8-0.4-17.6-0.8c-5.9-0.4-11.7-1.1-17.5-1.9c-5.7-0.8-11.3-1.8-17-3
		c-8-1.7-15.9-3.7-23.7-6.1c-5.9-1.8-11.8-3.8-17.5-6.1c-7.4-2.8-14.6-6-21.7-9.4c-5.8-2.9-11.6-5.9-17.2-9.2
		c-6.8-3.9-13.4-8.1-19.8-12.6c-4.3-3-8.5-6.1-12.6-9.4c-6.8-5.3-13.3-10.9-19.5-16.8c-4.8-4.5-9.4-9.2-13.9-14
		c-6-6.5-11.6-13.2-16.9-20.2c-4.3-5.6-8.4-11.4-12.3-17.3c-4.3-6.6-8.3-13.3-12-20.2c-4.6-8.5-8.8-17.2-12.5-26.1
		c-5.4-12.9-9.8-26.1-13.3-39.6c-2.3-8.9-4.2-18-5.6-27.1c-0.8-5.2-1.4-10.5-2-15.8c-0.6-4.8-0.9-9.7-1.2-14.5
		c-0.5-8.3-0.6-16.5-0.3-24.8c0.1-4,0.2-8,0.5-11.9c0.2-3.7,0.6-7.3,1-10.9c0.3-3.3,0.7-6.5,1.2-9.8c0.8-5.1,1.5-10.1,2.5-15.1
		c1.6-8.4,3.6-16.7,5.9-24.9c2.6-9.3,5.7-18.5,9.3-27.4c4-10.2,8.6-20.1,13.7-29.7c3.7-7,7.8-13.9,12.1-20.6
		c4.5-7,9.3-13.7,14.3-20.3c4.6-5.9,9.4-11.6,14.4-17.1c4.3-4.8,8.8-9.4,13.5-13.9c3.9-3.7,7.8-7.2,11.8-10.7
		c4.4-3.9,9.1-7.6,13.9-11.2c3-2.3,6.1-4.5,9.2-6.7c6.2-4.3,12.5-8.3,19-12.1c2.7-1.6,5.5-3.1,8.3-4.6c5.8-3.2,11.8-6,17.9-8.7
		c6.4-2.8,12.8-5.4,19.4-7.7c6.5-2.3,13.1-4.3,19.7-6.1c6.1-1.7,12.2-3.1,18.4-4.3c4.3-0.9,8.6-1.4,12.9-2.1
		c2.1-0.3,4.1-0.6,6.2-0.9c1.6-0.2,3.1-0.4,4.7-0.5c4-0.3,7.9-0.6,11.9-0.9c6.1-0.4,12.2-0.6,18.4-0.6c4.2,0,8.3,0.1,12.5,0.4
		c4.2,0.2,8.4,0.6,12.7,1c3.5,0.3,6.9,0.7,10.3,1.2c5.9,0.9,11.9,1.7,17.7,3c4.4,1,8.8,1.9,13.1,3c6.8,1.7,13.5,3.8,20.1,6.1
		c5.6,1.9,11.1,4,16.5,6.3c4.5,1.9,8.9,3.9,13.3,6c6,2.9,12,6,17.8,9.4c6.7,3.9,13.3,8.1,19.7,12.5c7,4.9,13.8,10.1,20.3,15.6
		c7.1,5.9,13.8,12.2,20.3,18.8c6.8,6.9,13.2,14.2,19.2,21.7c7.9,9.9,15.1,20.3,21.6,31.1c9.7,16.1,17.7,33.1,24.1,50.8
		c5.1,14,9,28.3,11.9,42.9c1.1,5.7,2.1,11.4,2.8,17.2c0.5,3.8,0.9,7.5,1.4,11.3c0.2,2.1,0.4,4.2,0.5,6.2c0.2,3.2,0.4,6.4,0.6,9.6
		c0.1,0.9,0.1,1.8,0.1,2.7c0,6.5,0.1,13,0,19.5c-0.1,3.9-0.4,7.8-0.6,11.7c-0.1,2.3-0.3,4.5-0.5,6.8c-0.2,2.6-0.5,5.3-0.8,7.9
		c-0.5,4.1-1.1,8.1-1.8,12.2c-1.4,8.9-3.3,17.6-5.5,26.3c-3.9,15.3-9.1,30.2-15.5,44.7c-4,9.1-8.5,18-13.5,26.7
		c-4.6,8.1-9.6,15.9-15,23.5c-4.2,5.9-8.6,11.7-13.3,17.3c-1,1.2-2,2.4-3.1,3.6c-0.4,0.5-0.8,1-1.2,1.6c0.3,0.3,0.5,0.6,0.7,0.9
		c4.5,4.3,8.9,8.6,13.4,12.9c5.9,5.7,11.9,11.4,17.8,17.1c5,4.8,10,9.5,15,14.3c5.9,5.6,11.8,11.3,17.6,16.9c1.6,1.5,3.2,3,4.8,4.6
		c0.9,0.8,1.7,1.7,2.5,2.6c2.2,2.2,4.5,4.5,6.7,6.7c3.7,3.7,7.5,7.4,11.2,11c2.4,2.4,4.9,4.8,7.3,7.2
		C835.8,781.8,836.3,782.2,837,782.9z"/>
</g>
<g>
	<path class="st1" d="M1049,641.9c-22-23-32.8-52.2-32.8-87.2c0-35.1,10.8-64.3,32.8-86.9c22-23,49.9-34.4,83.6-34.4
		c33.8,0,61.3,11.5,83.3,34.4c22,22.6,33.1,51.8,33.1,86.9c0,45.6-20.7,83.6-54.8,104.6c7.9,17.7,21.3,26.6,40,26.6h27.9v47.6
		c-7.5,2.3-16.4,3.3-26.6,3.3c-38.4,0-65.9-20.7-83.3-62.3c-7.2,1-13.8,1.6-19.7,1.6C1098.9,676.1,1071,664.6,1049,641.9z
		 M1132.7,484.2c-18,0-32.8,6.6-44,19.7S1072,534,1072,554.7s5.6,37.7,16.7,50.8s25.9,19.7,44,19.7c18,0,32.8-6.6,44-19.7
		s16.7-30.2,16.7-50.8s-5.6-37.7-16.7-50.8S1150.7,484.2,1132.7,484.2z"/>
	<path class="st1" d="M1281.9,495.7h52.5v105c0,19.7,8.5,29.5,25.6,29.5c18.7,0,33.1-10.2,38.4-18V495.7h52.5v177.1h-52.5v-19.7
		h-0.7c-3.6,4.9-10.2,10.2-20,15.4c-9.8,4.9-21.3,7.5-34.1,7.5c-41,0-61.7-23.6-61.7-70.5V495.7z"/>
	<path class="st1" d="M1550.9,472.7h-55.8v-49.2h55.8V472.7z M1549.2,672.8h-52.5V495.7h52.5V672.8z"/>
	<path class="st1" d="M1739.5,656c-13.1,11.8-38,20-63.3,20c-28.5,0-50.8-8.5-66.9-25.6c-16.1-17.4-23.9-38.7-23.9-64.6
		c0-26.6,8.9-48.5,26.9-66.6s40.7-26.9,68.2-26.9c22,0,40.7,5.9,55.8,17.7l-22.3,38.4c-8.9-6.9-20-10.2-33.5-10.2
		c-27.2,0-42.6,19-42.6,47.6c0,25.9,15.1,42.6,41,42.6c12.1,0,24.6-3.6,37.1-11.2L1739.5,656z"/>
	<path class="st1" d="M1937.9,495.7l-68.9,72.8l73.8,104.3h-64.3l-44-67.6l-13.1,13.8v53.8H1769v-246h52.5v130.5l57.1-61.7H1937.9z"
		/>
	<path class="st1" d="M2158.3,649.5c-17.4,15.7-50.5,26.6-83.6,26.6c-37.7,0-67.2-11.2-87.9-33.8s-30.8-51.2-30.8-85.6
		c0-35.1,11.8-64.3,35.4-87.9c23.9-23.6,54.1-35.4,90.5-35.4c29.8,0,54.4,7.5,73.8,23l-31.5,43.3c-13.4-10.2-28.2-15.1-44.6-15.1
		c-41.7,0-67.9,27.9-67.9,72.2c0,42,24.3,66.9,66.3,66.9c18,0,35.1-4.9,51.8-14.8L2158.3,649.5z"/>
	<path class="st1" d="M2335.4,672.8H2283v-17.1h-0.7c-13.4,13.4-31.2,20.3-52.8,20.3c-14.8,0-26.9-4.6-36.7-14.1
		c-9.8-9.5-14.8-22.3-14.8-37.7c0-34.4,29.2-53.5,90.5-61.7l14.4-2v-3c0-6.2-2.6-19.4-27.9-19.4c-17.4,0-35.4,6.6-44.6,14.4
		l-21.3-37.4c14.1-12.1,41.3-23,71.5-23c23.3,0,41.7,6.6,54.8,19.7c13.4,12.8,20,29.8,20,50.5V672.8z M2283,593.7l-10.5,2
		c-32.8,6.2-42,12.8-42,24.3c0,7.9,5.9,11.8,17.7,11.8c11.8,0,27.2-5.6,34.8-11.8V593.7z"/>
	<path class="st1" d="M2433.8,672.8h-52.5V495.7h52.5v23h0.7c9.2-17.4,23-26.2,41.7-26.2c7.5,0,14.1,1.3,16.7,2.6l1.6,0.7v44.3
		h-18.4c-23.3,0-38,14.1-42.3,26.2V672.8z"/>
	<path class="st1" d="M2632.3,426.8h52.5v246h-52.5v-19.7h-0.7c-3.6,4.9-10.2,10.2-19,15.4c-8.9,4.9-19.7,7.5-31.8,7.5
		c-48.9,0-73.1-32.1-73.1-88.6c0-27.9,7.9-50.5,23.6-68.2c15.7-18,36.1-26.9,60.7-26.9c17.7,0,31.2,3.6,40.3,10.5V426.8z
		 M2632.3,548.1c-10.8-6.6-22-9.8-32.8-9.8c-22.6,0-39.4,16.7-39.4,49.2c0,28.5,11.8,42.6,35.4,42.6c16.7,0,31.5-10.5,36.7-18V548.1
		z"/>
</g>
<rect x="4708.7" y="-191.5" style="fill:none;" width="6" height="6"/>
</svg>
